<svg width="1055" height="409" viewBox="0 0 1055 409" fill="none" xmlns="http://www.w3.org/2000/svg">
<path d="M366.77 328.704C352.117 328.704 341.314 324.64 334.36 316.511C327.655 308.383 324.302 297.914 324.302 285.105V163.176H260.227V138.052H307.91C314.368 138.052 318.838 136.82 321.322 134.357C324.053 131.647 325.419 127.09 325.419 120.686V70.8061H354.104V138.052H441.649V163.176H354.104V303.579H441.649V328.704H366.77Z" fill="#FFFFF0"/>
<path d="M431.073 55.2879H460.875V169.088H462.365C464.352 164.408 466.835 159.974 469.816 155.787C472.796 151.353 476.397 147.535 480.619 144.333C485.089 141.131 490.305 138.544 496.265 136.574C502.226 134.603 509.18 133.618 517.127 133.618C537.244 133.618 553.387 140.022 565.556 152.831C577.725 165.393 583.81 183.252 583.81 206.406V328.704H554.008V211.579C554.008 194.09 550.158 181.158 542.459 172.783C534.76 164.162 523.46 159.851 508.559 159.851C502.598 159.851 496.762 160.59 491.05 162.068C485.338 163.546 480.247 165.763 475.776 168.719C471.306 171.675 467.705 175.493 464.973 180.173C462.241 184.853 460.875 190.272 460.875 196.43V328.704H431.073V55.2879Z" fill="#FFFFF0"/>
<path d="M667.111 95.9308C658.419 95.9308 652.334 94.2066 648.857 90.7581C645.38 87.0633 643.642 82.5063 643.642 77.0873V71.1756C643.642 65.7565 645.38 61.3227 648.857 57.8742C652.334 54.1794 658.419 52.332 667.111 52.332C675.804 52.332 681.888 54.1794 685.365 57.8742C688.842 61.3227 690.581 65.7565 690.581 71.1756V77.0873C690.581 82.5063 688.842 87.0633 685.365 90.7581C681.888 94.2066 675.804 95.9308 667.111 95.9308ZM582.92 303.579H652.21V163.176H582.92V138.052H682.013V303.579H746.833V328.704H582.92V303.579Z" fill="#FFFFF0"/>
<path d="M728.806 328.704V138.052H758.608V169.088H760.098C762.085 164.408 764.569 159.974 767.549 155.787C770.529 151.353 774.13 147.535 778.352 144.333C782.823 141.131 788.038 138.544 793.999 136.574C799.959 134.603 806.913 133.618 814.86 133.618C834.977 133.618 851.12 140.022 863.289 152.831C875.459 165.393 881.543 183.252 881.543 206.406V328.704H851.741V211.579C851.741 194.09 847.892 181.158 840.193 172.783C832.494 164.162 821.194 159.851 806.292 159.851C800.332 159.851 794.495 160.59 788.783 162.068C783.071 163.546 777.98 165.763 773.51 168.719C769.039 171.675 765.438 175.493 762.706 180.173C759.974 184.853 758.608 190.272 758.608 196.43V328.704H728.806Z" fill="#FFFFF0"/>
<path d="M880.28 55.2879H910.083V227.836H911.573L945.101 196.43L1009.18 138.052H1045.68L965.962 212.687L1055 328.704H1018.12L943.238 229.683L910.083 259.611V328.704H880.28V55.2879Z" fill="#FFFFF0"/>
<path d="M123.516 162.786C123.516 172.964 115.221 181.215 104.989 181.215C94.7561 181.215 86.4609 172.964 86.4609 162.786C86.4609 152.608 94.7561 144.357 104.989 144.357C115.221 144.357 123.516 152.608 123.516 162.786Z" fill="#E05548"/>
<path d="M179.099 162.786C179.099 172.964 170.804 181.215 160.572 181.215C150.339 181.215 142.044 172.964 142.044 162.786C142.044 152.608 150.339 144.357 160.572 144.357C170.804 144.357 179.099 152.608 179.099 162.786Z" fill="#E89E2E"/>
<path d="M234.683 162.786C234.683 172.964 226.387 181.215 216.155 181.215C205.922 181.215 197.627 172.964 197.627 162.786C197.627 152.608 205.922 144.357 216.155 144.357C226.387 144.357 234.683 152.608 234.683 162.786Z" fill="#5FB87A"/>
<path d="M155.278 172C154.547 172 153.955 171.411 153.955 170.684V154.888C153.955 154.161 154.547 153.572 155.278 153.572C156.009 153.572 156.602 154.161 156.602 154.888V170.684C156.602 171.411 156.009 172 155.278 172Z" fill="#FFFFF0"/>
<path d="M160.572 168.051C159.841 168.051 159.248 167.462 159.248 166.735V158.837C159.248 158.11 159.841 157.521 160.572 157.521C161.303 157.521 161.895 158.11 161.895 158.837V166.735C161.895 167.462 161.303 168.051 160.572 168.051Z" fill="#FFFFF0"/>
<path d="M165.865 172C165.135 172 164.542 171.411 164.542 170.684V154.888C164.542 154.161 165.135 153.572 165.865 153.572C166.596 153.572 167.189 154.161 167.189 154.888V170.684C167.189 171.411 166.596 172 165.865 172Z" fill="#FFFFF0"/>
<path d="M228.066 162.786C228.066 164.169 227.792 165.538 227.26 166.816C226.728 168.094 225.948 169.254 224.965 170.232C223.982 171.21 222.814 171.986 221.53 172.515C220.245 173.044 218.869 173.317 217.478 173.317V162.786H228.066Z" fill="#6F9B7C"/>
<path d="M206.891 162.786C208.281 162.786 209.658 163.058 210.943 163.588C212.227 164.117 213.394 164.892 214.377 165.87C215.361 166.848 216.14 168.009 216.672 169.287C217.204 170.564 217.478 171.934 217.478 173.317H206.891V162.786Z" fill="#066222"/>
<path d="M217.478 152.255C218.869 152.255 220.245 152.528 221.53 153.057C222.814 153.586 223.982 154.362 224.965 155.34C225.948 156.318 226.728 157.478 227.26 158.756C227.792 160.034 228.066 161.403 228.066 162.786H217.478V152.255Z" fill="#38764B"/>
<path d="M206.891 152.255H217.478V162.786H206.891V152.255Z" fill="#FFFFF0"/>
<path d="M105.102 172C113.043 172 116.899 162.316 116.899 162.316C116.899 162.316 112.815 153.572 104.989 153.572C96.9488 153.572 93.078 162.316 93.078 162.316C93.078 162.316 97.1619 172 105.102 172Z" fill="#FFFFF0"/>
<path d="M105.191 169.367C111.367 169.367 114.366 162.622 114.366 162.622C114.366 162.622 111.19 156.204 105.102 156.204C98.8491 156.204 95.8385 162.622 95.8385 162.622C95.8385 162.622 99.0149 169.367 105.191 169.367Z" fill="#E05548"/>
<path d="M109.073 162.786C109.073 164.967 107.295 166.735 105.102 166.735C102.91 166.735 101.132 164.967 101.132 162.786C101.132 160.605 102.91 158.837 105.102 158.837C107.295 158.837 109.073 160.605 109.073 162.786Z" fill="#FFFFF0"/>
<path d="M107.749 162.786C107.749 164.24 106.564 165.419 105.102 165.419C103.641 165.419 102.456 164.24 102.456 162.786C102.456 161.332 103.641 160.153 105.102 160.153C106.564 160.153 107.749 161.332 107.749 162.786Z" fill="#E05548"/>
<path d="M188.364 319.429C188.364 322.655 187.646 325.851 186.249 328.832C184.852 331.813 182.805 334.522 180.224 336.803C177.644 339.085 174.58 340.895 171.208 342.13C167.836 343.365 164.222 344 160.573 344C156.923 344 153.309 343.365 149.937 342.13C146.566 340.895 143.502 339.085 140.921 336.803C138.341 334.522 136.293 331.813 134.897 328.832C133.5 325.851 132.781 322.655 132.781 319.429C142.748 322.613 160.573 325.981 160.573 325.981C160.573 325.981 178.141 322.881 188.364 319.429Z" fill="#FFFFF0"/>
<path d="M321.147 162.786C321.147 131.349 312.241 101.248 295.497 74.833C278.753 48.4176 254.881 27.4778 226.742 14.5233C198.603 1.56877 167.392 -2.85082 136.848 1.79423C106.304 6.43927 77.7239 19.9519 54.5331 40.7125C31.3424 61.4731 14.5249 88.6009 6.09615 118.845C-2.33256 149.088 -2.01482 181.164 7.01128 211.229C16.0374 241.293 33.3889 268.07 56.9862 288.351C80.5834 308.631 109.425 321.554 140.055 325.571C138.824 300.325 136.366 289.022 128.762 272.94C121.188 255.978 111.779 252.014 97.3845 239.643C82.9899 227.271 72.4054 210.937 66.8994 192.598C61.3934 174.258 61.1996 154.691 66.3412 136.243C71.4827 117.794 81.7416 101.246 95.8881 88.5814C110.035 75.9173 127.469 67.6745 146.101 64.841C164.733 62.0075 183.772 64.7035 200.937 72.6059C218.102 80.5082 232.664 93.2816 242.878 109.395C253.092 125.509 259.388 143.609 259.388 162.786H290.267H321.147Z" fill="#FFFFF0"/>
<path d="M182.188 325.57C213.066 321.99 242.358 310.599 266.989 292.592C291.621 274.585 309.653 251.609 321.145 224.214C321.145 224.214 272.86 223.159 257.594 226.086C242.329 229.013 234.911 233.584 221.629 243.127C208.346 252.671 194.247 276.472 192.201 281.858C190.154 287.244 182.188 325.57 182.188 325.57Z" fill="#FFFFF0"/>
<path d="M79.9027 363.75V395H75.7027V363.75H64.0527V360.1H91.5527V363.75H79.9027ZM97.6832 358H101.683V373.4H101.883C102.15 372.767 102.483 372.167 102.883 371.6C103.283 371 103.767 370.483 104.333 370.05C104.933 369.617 105.633 369.267 106.433 369C107.233 368.733 108.167 368.6 109.233 368.6C111.933 368.6 114.1 369.467 115.733 371.2C117.367 372.9 118.183 375.317 118.183 378.45V395H114.183V379.15C114.183 376.783 113.667 375.033 112.633 373.9C111.6 372.733 110.083 372.15 108.083 372.15C107.283 372.15 106.5 372.25 105.733 372.45C104.967 372.65 104.283 372.95 103.683 373.35C103.083 373.75 102.6 374.267 102.233 374.9C101.867 375.533 101.683 376.267 101.683 377.1V395H97.6832V358ZM138.214 395.6C136.347 395.6 134.664 395.283 133.164 394.65C131.697 394.017 130.43 393.117 129.364 391.95C128.33 390.75 127.53 389.333 126.964 387.7C126.397 386.033 126.114 384.183 126.114 382.15C126.114 380.083 126.397 378.217 126.964 376.55C127.564 374.883 128.38 373.467 129.414 372.3C130.447 371.1 131.68 370.183 133.114 369.55C134.58 368.917 136.197 368.6 137.964 368.6C139.697 368.6 141.264 368.917 142.664 369.55C144.097 370.183 145.314 371.067 146.314 372.2C147.314 373.3 148.08 374.617 148.614 376.15C149.147 377.683 149.414 379.367 149.414 381.2V383.1H130.314V384.3C130.314 385.433 130.497 386.483 130.864 387.45C131.23 388.417 131.747 389.25 132.414 389.95C133.114 390.65 133.947 391.2 134.914 391.6C135.914 391.967 137.014 392.15 138.214 392.15C139.947 392.15 141.447 391.75 142.714 390.95C143.98 390.15 144.947 389.05 145.614 387.65L148.564 389.65C147.797 391.383 146.514 392.817 144.714 393.95C142.947 395.05 140.78 395.6 138.214 395.6ZM137.964 371.9C136.864 371.9 135.847 372.1 134.914 372.5C133.98 372.9 133.164 373.45 132.464 374.15C131.797 374.85 131.264 375.683 130.864 376.65C130.497 377.583 130.314 378.617 130.314 379.75V380.1H145.114V379.55C145.114 378.417 144.93 377.383 144.564 376.45C144.23 375.517 143.747 374.717 143.114 374.05C142.514 373.35 141.764 372.817 140.864 372.45C139.997 372.083 139.03 371.9 137.964 371.9ZM205.475 377.5V366.45H205.075L197.725 384.4L190.375 366.45H189.975V377.5V395H186.125V360.1H191.525L197.675 375.5H197.975L204.125 360.1H209.325V395H205.475V377.5ZM233.805 390.8H233.605C233.338 391.433 233.005 392.05 232.605 392.65C232.205 393.217 231.705 393.717 231.105 394.15C230.538 394.583 229.855 394.933 229.055 395.2C228.255 395.467 227.322 395.6 226.255 395.6C223.555 395.6 221.388 394.75 219.755 393.05C218.122 391.317 217.305 388.883 217.305 385.75V369.2H221.305V385.05C221.305 387.417 221.822 389.183 222.855 390.35C223.888 391.483 225.405 392.05 227.405 392.05C228.205 392.05 228.988 391.95 229.755 391.75C230.522 391.55 231.205 391.25 231.805 390.85C232.405 390.45 232.888 389.95 233.255 389.35C233.622 388.717 233.805 387.967 233.805 387.1V369.2H237.805V395H233.805V390.8ZM246.686 391.6H255.686V361.4H246.686V358H259.686V391.6H268.686V395H246.686V391.6ZM288.916 395C286.949 395 285.499 394.45 284.566 393.35C283.666 392.25 283.216 390.833 283.216 389.1V372.6H274.616V369.2H281.016C281.883 369.2 282.483 369.033 282.816 368.7C283.183 368.333 283.366 367.717 283.366 366.85V360.1H287.216V369.2H298.966V372.6H287.216V391.6H298.966V395H288.916ZM319.246 363.5C318.08 363.5 317.263 363.267 316.796 362.8C316.33 362.3 316.096 361.683 316.096 360.95V360.15C316.096 359.417 316.33 358.817 316.796 358.35C317.263 357.85 318.08 357.6 319.246 357.6C320.413 357.6 321.23 357.85 321.696 358.35C322.163 358.817 322.396 359.417 322.396 360.15V360.95C322.396 361.683 322.163 362.3 321.696 362.8C321.23 363.267 320.413 363.5 319.246 363.5ZM307.946 391.6H317.246V372.6H307.946V369.2H321.246V391.6H329.946V395H307.946V391.6ZM340.377 381.9V377.7H354.877V381.9H340.377ZM377.507 395.6C374.374 395.6 371.807 395.033 369.807 393.9C367.807 392.733 366.157 391.25 364.857 389.45L367.907 386.95C369.274 388.65 370.707 389.917 372.207 390.75C373.741 391.583 375.557 392 377.657 392C380.191 392 382.124 391.417 383.457 390.25C384.791 389.083 385.457 387.45 385.457 385.35C385.457 383.65 384.974 382.333 384.007 381.4C383.041 380.433 381.357 379.75 378.957 379.35L375.057 378.7C373.357 378.4 371.924 377.95 370.757 377.35C369.624 376.75 368.707 376.033 368.007 375.2C367.307 374.333 366.807 373.4 366.507 372.4C366.207 371.367 366.057 370.3 366.057 369.2C366.057 366 367.107 363.583 369.207 361.95C371.307 360.317 374.141 359.5 377.707 359.5C380.507 359.5 382.857 359.967 384.757 360.9C386.691 361.833 388.241 363.15 389.407 364.85L386.457 367.4C385.491 366.133 384.324 365.1 382.957 364.3C381.591 363.5 379.824 363.1 377.657 363.1C375.291 363.1 373.474 363.6 372.207 364.6C370.941 365.6 370.307 367.1 370.307 369.1C370.307 370.667 370.774 371.95 371.707 372.95C372.674 373.917 374.391 374.617 376.857 375.05L380.607 375.7C382.307 376 383.741 376.45 384.907 377.05C386.074 377.65 387.007 378.367 387.707 379.2C388.441 380.033 388.957 380.967 389.257 382C389.557 383.033 389.707 384.117 389.707 385.25C389.707 388.483 388.641 391.017 386.507 392.85C384.407 394.683 381.407 395.6 377.507 395.6ZM408.038 395.6C406.171 395.6 404.488 395.283 402.988 394.65C401.521 394.017 400.255 393.117 399.188 391.95C398.155 390.75 397.355 389.333 396.788 387.7C396.221 386.033 395.938 384.183 395.938 382.15C395.938 380.083 396.221 378.217 396.788 376.55C397.388 374.883 398.205 373.467 399.238 372.3C400.271 371.1 401.505 370.183 402.938 369.55C404.405 368.917 406.021 368.6 407.788 368.6C409.521 368.6 411.088 368.917 412.488 369.55C413.921 370.183 415.138 371.067 416.138 372.2C417.138 373.3 417.905 374.617 418.438 376.15C418.971 377.683 419.238 379.367 419.238 381.2V383.1H400.138V384.3C400.138 385.433 400.321 386.483 400.688 387.45C401.055 388.417 401.571 389.25 402.238 389.95C402.938 390.65 403.771 391.2 404.738 391.6C405.738 391.967 406.838 392.15 408.038 392.15C409.771 392.15 411.271 391.75 412.538 390.95C413.805 390.15 414.771 389.05 415.438 387.65L418.388 389.65C417.621 391.383 416.338 392.817 414.538 393.95C412.771 395.05 410.605 395.6 408.038 395.6ZM407.788 371.9C406.688 371.9 405.671 372.1 404.738 372.5C403.805 372.9 402.988 373.45 402.288 374.15C401.621 374.85 401.088 375.683 400.688 376.65C400.321 377.583 400.138 378.617 400.138 379.75V380.1H414.938V379.55C414.938 378.417 414.755 377.383 414.388 376.45C414.055 375.517 413.571 374.717 412.938 374.05C412.338 373.35 411.588 372.817 410.688 372.45C409.821 372.083 408.855 371.9 407.788 371.9ZM427.468 395V369.2H431.468V373.4H431.668C431.935 372.767 432.268 372.167 432.668 371.6C433.068 371 433.552 370.483 434.118 370.05C434.718 369.617 435.418 369.267 436.218 369C437.018 368.733 437.952 368.6 439.018 368.6C441.718 368.6 443.885 369.467 445.518 371.2C447.152 372.9 447.968 375.317 447.968 378.45V395H443.968V379.15C443.968 376.783 443.452 375.033 442.418 373.9C441.385 372.733 439.868 372.15 437.868 372.15C437.068 372.15 436.285 372.25 435.518 372.45C434.752 372.65 434.068 372.95 433.468 373.35C432.868 373.75 432.385 374.267 432.018 374.9C431.652 375.533 431.468 376.267 431.468 377.1V395H427.468ZM467.849 395.6C465.149 395.6 462.815 395.15 460.849 394.25C458.915 393.317 457.265 392.083 455.899 390.55L458.599 388.2C459.832 389.5 461.182 390.5 462.649 391.2C464.115 391.9 465.882 392.25 467.949 392.25C469.949 392.25 471.582 391.9 472.849 391.2C474.149 390.467 474.799 389.333 474.799 387.8C474.799 387.133 474.665 386.583 474.399 386.15C474.165 385.683 473.832 385.317 473.399 385.05C472.965 384.783 472.482 384.583 471.949 384.45C471.415 384.283 470.849 384.15 470.249 384.05L466.199 383.45C465.299 383.317 464.315 383.133 463.249 382.9C462.215 382.667 461.265 382.3 460.399 381.8C459.532 381.267 458.799 380.567 458.199 379.7C457.632 378.833 457.349 377.7 457.349 376.3C457.349 375 457.599 373.883 458.099 372.95C458.632 371.983 459.365 371.183 460.299 370.55C461.232 369.883 462.332 369.4 463.599 369.1C464.865 368.767 466.249 368.6 467.749 368.6C470.082 368.6 472.099 368.967 473.799 369.7C475.532 370.433 477.015 371.45 478.249 372.75L475.649 375.2C475.349 374.833 474.965 374.467 474.499 374.1C474.065 373.7 473.515 373.35 472.849 373.05C472.215 372.717 471.465 372.45 470.599 372.25C469.732 372.05 468.732 371.95 467.599 371.95C465.565 371.95 463.999 372.3 462.899 373C461.832 373.7 461.299 374.717 461.299 376.05C461.299 376.717 461.415 377.283 461.649 377.75C461.915 378.183 462.265 378.533 462.699 378.8C463.132 379.067 463.615 379.283 464.149 379.45C464.715 379.583 465.282 379.7 465.849 379.8L469.899 380.4C470.832 380.533 471.815 380.717 472.849 380.95C473.882 381.183 474.832 381.567 475.699 382.1C476.565 382.6 477.282 383.283 477.849 384.15C478.449 385.017 478.749 386.15 478.749 387.55C478.749 390.117 477.749 392.1 475.749 393.5C473.782 394.9 471.149 395.6 467.849 395.6ZM497.529 395.6C495.729 395.6 494.096 395.283 492.629 394.65C491.196 394.017 489.963 393.117 488.929 391.95C487.929 390.75 487.163 389.333 486.629 387.7C486.096 386.033 485.829 384.167 485.829 382.1C485.829 380.067 486.096 378.217 486.629 376.55C487.163 374.883 487.929 373.467 488.929 372.3C489.963 371.1 491.196 370.183 492.629 369.55C494.096 368.917 495.729 368.6 497.529 368.6C499.329 368.6 500.946 368.917 502.379 369.55C503.846 370.183 505.079 371.1 506.079 372.3C507.113 373.467 507.896 374.883 508.429 376.55C508.963 378.217 509.229 380.067 509.229 382.1C509.229 384.167 508.963 386.033 508.429 387.7C507.896 389.333 507.113 390.75 506.079 391.95C505.079 393.117 503.846 394.017 502.379 394.65C500.946 395.283 499.329 395.6 497.529 395.6ZM497.529 392.15C499.763 392.15 501.563 391.483 502.929 390.15C504.296 388.817 504.979 386.75 504.979 383.95V380.25C504.979 377.45 504.296 375.383 502.929 374.05C501.563 372.717 499.763 372.05 497.529 372.05C495.296 372.05 493.496 372.717 492.129 374.05C490.763 375.383 490.079 377.45 490.079 380.25V383.95C490.079 386.75 490.763 388.817 492.129 390.15C493.496 391.483 495.296 392.15 497.529 392.15ZM516.36 391.6H523.91V372.6H516.36V369.2H527.91V375.7H528.16C528.693 373.667 529.693 372.083 531.16 370.95C532.66 369.783 534.56 369.2 536.86 369.2H540.46V373.2H535.61C533.31 373.2 531.443 373.867 530.01 375.2C528.61 376.533 527.91 378.283 527.91 380.45V391.6H537.91V395H516.36V391.6ZM565.84 369.2H569.84L557.04 400.65C556.74 401.383 556.407 402.017 556.04 402.55C555.674 403.117 555.24 403.567 554.74 403.9C554.24 404.267 553.64 404.533 552.94 404.7C552.24 404.9 551.407 405 550.44 405H546.64V401.6H552.64L555.54 394.5L545.14 369.2H549.24L553.59 380L557.44 389.8H557.64L561.49 380L565.84 369.2ZM608.451 395V360.1H612.651V391.35H629.201V395H608.451ZM647.882 395.6C646.015 395.6 644.332 395.283 642.832 394.65C641.365 394.017 640.098 393.117 639.032 391.95C637.998 390.75 637.198 389.333 636.632 387.7C636.065 386.033 635.782 384.183 635.782 382.15C635.782 380.083 636.065 378.217 636.632 376.55C637.232 374.883 638.048 373.467 639.082 372.3C640.115 371.1 641.348 370.183 642.782 369.55C644.248 368.917 645.865 368.6 647.632 368.6C649.365 368.6 650.932 368.917 652.332 369.55C653.765 370.183 654.982 371.067 655.982 372.2C656.982 373.3 657.748 374.617 658.282 376.15C658.815 377.683 659.082 379.367 659.082 381.2V383.1H639.982V384.3C639.982 385.433 640.165 386.483 640.532 387.45C640.898 388.417 641.415 389.25 642.082 389.95C642.782 390.65 643.615 391.2 644.582 391.6C645.582 391.967 646.682 392.15 647.882 392.15C649.615 392.15 651.115 391.75 652.382 390.95C653.648 390.15 654.615 389.05 655.282 387.65L658.232 389.65C657.465 391.383 656.182 392.817 654.382 393.95C652.615 395.05 650.448 395.6 647.882 395.6ZM647.632 371.9C646.532 371.9 645.515 372.1 644.582 372.5C643.648 372.9 642.832 373.45 642.132 374.15C641.465 374.85 640.932 375.683 640.532 376.65C640.165 377.583 639.982 378.617 639.982 379.75V380.1H654.782V379.55C654.782 378.417 654.598 377.383 654.232 376.45C653.898 375.517 653.415 374.717 652.782 374.05C652.182 373.35 651.432 372.817 650.532 372.45C649.665 372.083 648.698 371.9 647.632 371.9ZM687.162 395C685.595 395 684.479 394.6 683.812 393.8C683.145 393 682.729 392 682.562 390.8H682.312C681.745 392.3 680.829 393.483 679.562 394.35C678.329 395.183 676.662 395.6 674.562 395.6C671.862 395.6 669.712 394.9 668.112 393.5C666.512 392.1 665.712 390.183 665.712 387.75C665.712 385.35 666.579 383.5 668.312 382.2C670.079 380.9 672.912 380.25 676.812 380.25H682.312V377.7C682.312 375.8 681.779 374.383 680.712 373.45C679.645 372.483 678.129 372 676.162 372C674.429 372 673.012 372.35 671.912 373.05C670.812 373.717 669.929 374.633 669.262 375.8L666.562 373.8C666.895 373.133 667.345 372.483 667.912 371.85C668.479 371.217 669.179 370.667 670.012 370.2C670.845 369.7 671.795 369.317 672.862 369.05C673.929 368.75 675.112 368.6 676.412 368.6C679.445 368.6 681.845 369.367 683.612 370.9C685.412 372.433 686.312 374.567 686.312 377.3V391.5H689.912V395H687.162ZM675.262 392.25C676.295 392.25 677.229 392.133 678.062 391.9C678.929 391.633 679.679 391.3 680.312 390.9C680.945 390.467 681.429 389.967 681.762 389.4C682.129 388.8 682.312 388.167 682.312 387.5V383.25H676.812C674.412 383.25 672.662 383.583 671.562 384.25C670.462 384.917 669.912 385.883 669.912 387.15V388.2C669.912 389.533 670.379 390.55 671.312 391.25C672.279 391.917 673.595 392.25 675.262 392.25ZM696.243 391.6H703.793V372.6H696.243V369.2H707.793V375.7H708.043C708.576 373.667 709.576 372.083 711.043 370.95C712.543 369.783 714.443 369.2 716.743 369.2H720.343V373.2H715.493C713.193 373.2 711.326 373.867 709.893 375.2C708.493 376.533 707.793 378.283 707.793 380.45V391.6H717.793V395H696.243V391.6ZM727.273 395V369.2H731.273V373.4H731.473C731.74 372.767 732.073 372.167 732.473 371.6C732.873 371 733.356 370.483 733.923 370.05C734.523 369.617 735.223 369.267 736.023 369C736.823 368.733 737.756 368.6 738.823 368.6C741.523 368.6 743.69 369.467 745.323 371.2C746.956 372.9 747.773 375.317 747.773 378.45V395H743.773V379.15C743.773 376.783 743.256 375.033 742.223 373.9C741.19 372.733 739.673 372.15 737.673 372.15C736.873 372.15 736.09 372.25 735.323 372.45C734.556 372.65 733.873 372.95 733.273 373.35C732.673 373.75 732.19 374.267 731.823 374.9C731.456 375.533 731.273 376.267 731.273 377.1V395H727.273ZM768.954 363.5C767.787 363.5 766.97 363.267 766.504 362.8C766.037 362.3 765.804 361.683 765.804 360.95V360.15C765.804 359.417 766.037 358.817 766.504 358.35C766.97 357.85 767.787 357.6 768.954 357.6C770.12 357.6 770.937 357.85 771.404 358.35C771.87 358.817 772.104 359.417 772.104 360.15V360.95C772.104 361.683 771.87 362.3 771.404 362.8C770.937 363.267 770.12 363.5 768.954 363.5ZM757.654 391.6H766.954V372.6H757.654V369.2H770.954V391.6H779.654V395H757.654V391.6ZM787.234 395V369.2H791.234V373.4H791.434C791.701 372.767 792.034 372.167 792.434 371.6C792.834 371 793.317 370.483 793.884 370.05C794.484 369.617 795.184 369.267 795.984 369C796.784 368.733 797.717 368.6 798.784 368.6C801.484 368.6 803.651 369.467 805.284 371.2C806.917 372.9 807.734 375.317 807.734 378.45V395H803.734V379.15C803.734 376.783 803.217 375.033 802.184 373.9C801.151 372.733 799.634 372.15 797.634 372.15C796.834 372.15 796.051 372.25 795.284 372.45C794.517 372.65 793.834 372.95 793.234 373.35C792.634 373.75 792.151 374.267 791.784 374.9C791.417 375.533 791.234 376.267 791.234 377.1V395H787.234ZM840.364 397.95C840.364 400.55 839.281 402.467 837.114 403.7C834.948 404.967 831.698 405.6 827.364 405.6C823.198 405.6 820.198 405.05 818.364 403.95C816.564 402.85 815.664 401.267 815.664 399.2C815.664 397.8 816.031 396.717 816.764 395.95C817.498 395.183 818.531 394.617 819.864 394.25V393.65C819.131 393.283 818.564 392.817 818.164 392.25C817.764 391.683 817.564 390.967 817.564 390.1C817.564 388.767 817.998 387.767 818.864 387.1C819.764 386.433 820.881 385.933 822.214 385.6V385.4C820.614 384.7 819.364 383.667 818.464 382.3C817.598 380.933 817.164 379.333 817.164 377.5C817.164 376.2 817.398 375 817.864 373.9C818.331 372.8 818.998 371.867 819.864 371.1C820.764 370.3 821.831 369.683 823.064 369.25C824.298 368.817 825.664 368.6 827.164 368.6C829.098 368.6 830.798 368.95 832.264 369.65V369.2C832.264 368.2 832.498 367.367 832.964 366.7C833.431 366.033 834.231 365.7 835.364 365.7H840.114V369.2H834.314V370.95C835.248 371.75 835.964 372.7 836.464 373.8C836.964 374.9 837.214 376.133 837.214 377.5C837.214 378.8 836.964 380 836.464 381.1C835.998 382.2 835.331 383.15 834.464 383.95C833.598 384.717 832.531 385.317 831.264 385.75C830.031 386.183 828.664 386.4 827.164 386.4C826.731 386.4 826.314 386.383 825.914 386.35C825.514 386.317 825.114 386.267 824.714 386.2C824.314 386.267 823.898 386.383 823.464 386.55C823.031 386.683 822.631 386.883 822.264 387.15C821.898 387.383 821.598 387.667 821.364 388C821.131 388.333 821.014 388.717 821.014 389.15C821.014 389.917 821.398 390.433 822.164 390.7C822.931 390.933 823.931 391.05 825.164 391.05H830.864C834.198 391.05 836.614 391.683 838.114 392.95C839.614 394.183 840.364 395.85 840.364 397.95ZM836.614 398.15C836.614 397.117 836.198 396.283 835.364 395.65C834.531 395.05 833.081 394.75 831.014 394.75H822.064C820.331 395.45 819.464 396.617 819.464 398.25C819.464 399.383 819.914 400.35 820.814 401.15C821.714 401.983 823.214 402.4 825.314 402.4H829.214C831.548 402.4 833.364 402.033 834.664 401.3C835.964 400.6 836.614 399.55 836.614 398.15ZM827.164 383.3C829.164 383.3 830.631 382.833 831.564 381.9C832.531 380.967 833.014 379.733 833.014 378.2V376.75C833.014 375.217 832.531 374 831.564 373.1C830.631 372.167 829.164 371.7 827.164 371.7C825.164 371.7 823.698 372.167 822.764 373.1C821.831 374 821.364 375.217 821.364 376.75V378.2C821.364 379.733 821.831 380.967 822.764 381.9C823.698 382.833 825.164 383.3 827.164 383.3ZM889.375 363.75V395H885.175V363.75H873.525V360.1H901.025V363.75H889.375ZM917.256 395.6C915.456 395.6 913.823 395.283 912.356 394.65C910.923 394.017 909.689 393.117 908.656 391.95C907.656 390.75 906.889 389.333 906.356 387.7C905.823 386.033 905.556 384.167 905.556 382.1C905.556 380.067 905.823 378.217 906.356 376.55C906.889 374.883 907.656 373.467 908.656 372.3C909.689 371.1 910.923 370.183 912.356 369.55C913.823 368.917 915.456 368.6 917.256 368.6C919.056 368.6 920.673 368.917 922.106 369.55C923.573 370.183 924.806 371.1 925.806 372.3C926.839 373.467 927.623 374.883 928.156 376.55C928.689 378.217 928.956 380.067 928.956 382.1C928.956 384.167 928.689 386.033 928.156 387.7C927.623 389.333 926.839 390.75 925.806 391.95C924.806 393.117 923.573 394.017 922.106 394.65C920.673 395.283 919.056 395.6 917.256 395.6ZM917.256 392.15C919.489 392.15 921.289 391.483 922.656 390.15C924.023 388.817 924.706 386.75 924.706 383.95V380.25C924.706 377.45 924.023 375.383 922.656 374.05C921.289 372.717 919.489 372.05 917.256 372.05C915.023 372.05 913.223 372.717 911.856 374.05C910.489 375.383 909.806 377.45 909.806 380.25V383.95C909.806 386.75 910.489 388.817 911.856 390.15C913.223 391.483 915.023 392.15 917.256 392.15ZM947.236 395.6C945.436 395.6 943.803 395.283 942.336 394.65C940.903 394.017 939.67 393.117 938.636 391.95C937.636 390.75 936.87 389.333 936.336 387.7C935.803 386.033 935.536 384.167 935.536 382.1C935.536 380.067 935.803 378.217 936.336 376.55C936.87 374.883 937.636 373.467 938.636 372.3C939.67 371.1 940.903 370.183 942.336 369.55C943.803 368.917 945.436 368.6 947.236 368.6C949.036 368.6 950.653 368.917 952.086 369.55C953.553 370.183 954.786 371.1 955.786 372.3C956.82 373.467 957.603 374.883 958.136 376.55C958.67 378.217 958.936 380.067 958.936 382.1C958.936 384.167 958.67 386.033 958.136 387.7C957.603 389.333 956.82 390.75 955.786 391.95C954.786 393.117 953.553 394.017 952.086 394.65C950.653 395.283 949.036 395.6 947.236 395.6ZM947.236 392.15C949.47 392.15 951.27 391.483 952.636 390.15C954.003 388.817 954.686 386.75 954.686 383.95V380.25C954.686 377.45 954.003 375.383 952.636 374.05C951.27 372.717 949.47 372.05 947.236 372.05C945.003 372.05 943.203 372.717 941.836 374.05C940.47 375.383 939.786 377.45 939.786 380.25V383.95C939.786 386.75 940.47 388.817 941.836 390.15C943.203 391.483 945.003 392.15 947.236 392.15ZM966.217 391.6H975.217V361.4H966.217V358H979.217V391.6H988.217V395H966.217V391.6Z" fill="#FFFFF0"/>
</svg>
