<svg width="83" height="27" viewBox="0 0 83 27" fill="none" xmlns="http://www.w3.org/2000/svg">
<path d="M28.5518 25.7994C27.4111 25.7994 26.5701 25.4804 26.0288 24.8424C25.5068 24.2044 25.2458 23.3828 25.2458 22.3774V12.8074H20.2578V10.8354H23.9698C24.4725 10.8354 24.8205 10.7388 25.0138 10.5454C25.2265 10.3328 25.3328 9.97509 25.3328 9.47242V5.55742H27.5658V10.8354H34.3808V12.8074H27.5658V23.8274H34.3808V25.7994H28.5518Z" fill="#242A3B"/>
<path d="M33.5575 4.33942H35.8775V13.2714H35.9935C36.1482 12.9041 36.3415 12.5561 36.5735 12.2274C36.8055 11.8794 37.0858 11.5798 37.4145 11.3284C37.7625 11.0771 38.1685 10.8741 38.6325 10.7194C39.0965 10.5648 39.6378 10.4874 40.2565 10.4874C41.8225 10.4874 43.0792 10.9901 44.0265 11.9954C44.9738 12.9814 45.4475 14.3831 45.4475 16.2004V25.7994H43.1275V16.6064C43.1275 15.2338 42.8278 14.2188 42.2285 13.5614C41.6292 12.8848 40.7495 12.5464 39.5895 12.5464C39.1255 12.5464 38.6712 12.6044 38.2265 12.7204C37.7818 12.8364 37.3855 13.0104 37.0375 13.2424C36.6895 13.4744 36.4092 13.7741 36.1965 14.1414C35.9838 14.5088 35.8775 14.9341 35.8775 15.4174V25.7994H33.5575V4.33942Z" fill="#242A3B"/>
<path d="M51.9322 7.52942C51.2555 7.52942 50.7818 7.39409 50.5112 7.12342C50.2405 6.83342 50.1052 6.47575 50.1052 6.05042V5.58642C50.1052 5.16109 50.2405 4.81309 50.5112 4.54242C50.7818 4.25242 51.2555 4.10742 51.9322 4.10742C52.6088 4.10742 53.0825 4.25242 53.3532 4.54242C53.6238 4.81309 53.7592 5.16109 53.7592 5.58642V6.05042C53.7592 6.47575 53.6238 6.83342 53.3532 7.12342C53.0825 7.39409 52.6088 7.52942 51.9322 7.52942ZM45.3782 23.8274H50.7722V12.8074H45.3782V10.8354H53.0922V23.8274H58.1382V25.7994H45.3782V23.8274Z" fill="#242A3B"/>
<path d="M56.7348 25.7994V10.8354H59.0548V13.2714H59.1708C59.3255 12.9041 59.5188 12.5561 59.7508 12.2274C59.9828 11.8794 60.2632 11.5798 60.5918 11.3284C60.9398 11.0771 61.3458 10.8741 61.8098 10.7194C62.2738 10.5648 62.8152 10.4874 63.4338 10.4874C64.9998 10.4874 66.2565 10.9901 67.2038 11.9954C68.1512 12.9814 68.6248 14.3831 68.6248 16.2004V25.7994H66.3048V16.6064C66.3048 15.2338 66.0052 14.2188 65.4058 13.5614C64.8065 12.8848 63.9268 12.5464 62.7668 12.5464C62.3028 12.5464 61.8485 12.6044 61.4038 12.7204C60.9592 12.8364 60.5628 13.0104 60.2148 13.2424C59.8668 13.4744 59.5865 13.7741 59.3738 14.1414C59.1612 14.5088 59.0548 14.9341 59.0548 15.4174V25.7994H56.7348Z" fill="#242A3B"/>
<path d="M68.5265 4.33942H70.8465V17.8824H70.9625L73.5725 15.4174L78.5605 10.8354H81.4025L75.1965 16.6934L82.1275 25.7994H79.2565L73.4275 18.0274L70.8465 20.3764V25.7994H68.5265V4.33942Z" fill="#242A3B"/>
<path d="M9.61508 12.7765C9.61508 13.5753 8.96934 14.2229 8.17278 14.2229C7.37621 14.2229 6.73047 13.5753 6.73047 12.7765C6.73047 11.9777 7.37621 11.3301 8.17278 11.3301C8.96934 11.3301 9.61508 11.9777 9.61508 12.7765Z" fill="#E05548"/>
<path d="M13.942 12.7765C13.942 13.5753 13.2963 14.2229 12.4997 14.2229C11.7031 14.2229 11.0574 13.5753 11.0574 12.7765C11.0574 11.9777 11.7031 11.3301 12.4997 11.3301C13.2963 11.3301 13.942 11.9777 13.942 12.7765Z" fill="#E89E2E"/>
<path d="M18.2689 12.7765C18.2689 13.5753 17.6232 14.2229 16.8266 14.2229C16.0301 14.2229 15.3843 13.5753 15.3843 12.7765C15.3843 11.9777 16.0301 11.3301 16.8266 11.3301C17.6232 11.3301 18.2689 11.9777 18.2689 12.7765Z" fill="#5FB87A"/>
<path d="M12.0876 13.4997C12.0307 13.4997 11.9846 13.4535 11.9846 13.3964V12.1566C11.9846 12.0995 12.0307 12.0533 12.0876 12.0533C12.1445 12.0533 12.1906 12.0995 12.1906 12.1566V13.3964C12.1906 13.4535 12.1445 13.4997 12.0876 13.4997Z" fill="#FFFFF0"/>
<path d="M12.4997 13.1898C12.4428 13.1898 12.3967 13.1435 12.3967 13.0865V12.4666C12.3967 12.4095 12.4428 12.3632 12.4997 12.3632C12.5566 12.3632 12.6027 12.4095 12.6027 12.4666V13.0865C12.6027 13.1435 12.5566 13.1898 12.4997 13.1898Z" fill="#FFFFF0"/>
<path d="M12.9118 13.4997C12.8549 13.4997 12.8088 13.4535 12.8088 13.3964V12.1566C12.8088 12.0995 12.8549 12.0533 12.9118 12.0533C12.9687 12.0533 13.0148 12.0995 13.0148 12.1566V13.3964C13.0148 13.4535 12.9687 13.4997 12.9118 13.4997Z" fill="#FFFFF0"/>
<path d="M17.7538 12.7765C17.7538 12.885 17.7325 12.9925 17.6911 13.0928C17.6497 13.1931 17.589 13.2842 17.5124 13.361C17.4359 13.4377 17.345 13.4986 17.245 13.5401C17.145 13.5817 17.0379 13.603 16.9296 13.603V12.7765H17.7538Z" fill="#6F9B7C"/>
<path d="M16.1055 12.7765C16.2137 12.7765 16.3209 12.7979 16.4209 12.8394C16.5209 12.881 16.6117 12.9418 16.6882 13.0186C16.7648 13.0953 16.8255 13.1865 16.8669 13.2867C16.9083 13.387 16.9296 13.4945 16.9296 13.603H16.1055V12.7765Z" fill="#066222"/>
<path d="M16.9296 11.95C17.0379 11.95 17.145 11.9714 17.245 12.0129C17.345 12.0544 17.4359 12.1153 17.5124 12.1921C17.589 12.2688 17.6497 12.3599 17.6911 12.4602C17.7325 12.5605 17.7538 12.668 17.7538 12.7765H16.9296V11.95Z" fill="#38764B"/>
<path d="M16.1055 11.95H16.9296V12.7765H16.1055V11.95Z" fill="#FFFFF0"/>
<path d="M8.18163 13.4997C8.79976 13.4997 9.09997 12.7396 9.09997 12.7396C9.09997 12.7396 8.78205 12.0533 8.17278 12.0533C7.5469 12.0533 7.24558 12.7396 7.24558 12.7396C7.24558 12.7396 7.5635 13.4997 8.18163 13.4997Z" fill="#FFFFF0"/>
<path d="M8.18852 13.293C8.66929 13.293 8.90278 12.7636 8.90278 12.7636C8.90278 12.7636 8.65551 12.2599 8.18163 12.2599C7.69484 12.2599 7.46048 12.7636 7.46048 12.7636C7.46048 12.7636 7.70775 13.293 8.18852 13.293Z" fill="#E05548"/>
<path d="M8.4907 12.7765C8.4907 12.9477 8.35232 13.0865 8.18163 13.0865C8.01094 13.0865 7.87256 12.9477 7.87256 12.7765C7.87256 12.6053 8.01094 12.4666 8.18163 12.4666C8.35232 12.4666 8.4907 12.6053 8.4907 12.7765Z" fill="#FFFFF0"/>
<path d="M8.38767 12.7765C8.38767 12.8906 8.29542 12.9831 8.18163 12.9831C8.06783 12.9831 7.97559 12.8906 7.97559 12.7765C7.97559 12.6624 8.06783 12.5699 8.18163 12.5699C8.29542 12.5699 8.38767 12.6624 8.38767 12.7765Z" fill="#E05548"/>
<path d="M14.6629 25.0713C14.6629 25.3246 14.6069 25.5753 14.4982 25.8093C14.3895 26.0433 14.2301 26.2559 14.0292 26.435C13.8283 26.6141 13.5898 26.7561 13.3273 26.8531C13.0648 26.95 12.7835 26.9999 12.4994 26.9999C12.2153 26.9999 11.934 26.95 11.6715 26.8531C11.409 26.7561 11.1705 26.6141 10.9696 26.435C10.7687 26.2559 10.6093 26.0433 10.5006 25.8093C10.3919 25.5753 10.3359 25.3246 10.3359 25.0713C11.1118 25.3212 12.4994 25.5856 12.4994 25.5856C12.4994 25.5856 13.867 25.3422 14.6629 25.0713Z" fill="#242A3B"/>
<path d="M25 12.7768C25 10.3093 24.3067 7.94682 23.0033 5.87352C21.6998 3.80022 19.8415 2.15669 17.651 1.13991C15.4605 0.123131 13.0308 -0.223756 10.653 0.140826C8.27533 0.505408 6.05049 1.56599 4.24519 3.19546C2.43988 4.82492 1.1307 6.95414 0.474561 9.32791C-0.18158 11.7017 -0.156846 14.2193 0.5458 16.579C1.24845 18.9387 2.59919 21.0404 4.43614 22.6322C6.2731 24.224 8.51832 25.2383 10.9027 25.5536C10.8069 23.572 10.6156 22.6848 10.0236 21.4226C9.43396 20.0913 8.70154 19.7802 7.58099 18.8092C6.46043 17.8382 5.63647 16.5561 5.20785 15.1167C4.77923 13.6772 4.76414 12.1415 5.16439 10.6935C5.56464 9.24544 6.36325 7.9466 7.4645 6.95261C8.56575 5.95863 9.92292 5.31166 11.3733 5.08927C12.8238 4.86687 14.3059 5.07847 15.6421 5.69871C16.9783 6.31896 18.1119 7.32152 18.9071 8.58625C19.7022 9.85098 20.1923 11.2716 20.1923 12.7768H22.5962H25Z" fill="#242A3B"/>
<path d="M14.1836 25.5538C16.5874 25.2728 18.8676 24.3787 20.7851 22.9654C22.7025 21.5521 24.1063 19.7488 25.0009 17.5986C25.0009 17.5986 21.242 17.5157 20.0537 17.7455C18.8654 17.9752 18.2879 18.334 17.2539 19.083C16.22 19.8321 15.1224 21.7002 14.9631 22.1229C14.8038 22.5457 14.1836 25.5538 14.1836 25.5538Z" fill="#242A3B"/>
</svg>
