<svg width="170" height="37" viewBox="0 0 170 37" fill="none" xmlns="http://www.w3.org/2000/svg">
<path d="M18.1809 27.4349C18.4886 27.8582 18.416 28.4491 17.983 28.7465C16.2768 29.918 14.2843 30.5473 12.2413 30.5484C10.1984 30.5495 8.20535 29.9225 6.49802 28.7529C6.06462 28.456 5.99138 27.8651 6.2987 27.4415C6.63882 26.9727 7.30765 26.8931 7.79912 27.2042C9.1372 28.0511 10.6708 28.503 12.2403 28.5022C13.8099 28.5013 15.3431 28.0476 16.6803 27.1992C17.1714 26.8876 17.8403 26.9665 18.1809 27.4349Z" fill="#E05548"/>
<path d="M16.9891 31.4915C17.237 31.9613 17.075 32.5458 16.5928 32.7772C15.1885 33.451 13.6594 33.7927 12.1117 33.7734C10.5624 33.7541 9.03983 33.3737 7.6496 32.6637C7.17476 32.4212 7.0271 31.8349 7.28491 31.3721C7.56756 30.8646 8.22355 30.7049 8.75352 30.9519C9.81687 31.4476 10.9662 31.7128 12.1342 31.7273C13.3016 31.7419 14.4561 31.5056 15.5297 31.0369C16.0659 30.8029 16.7179 30.9777 16.9891 31.4915Z" fill="#E89E2E"/>
<path d="M15.5996 35.3847C15.7774 35.896 15.5189 36.4609 14.9937 36.6115C13.0469 37.1699 10.9899 37.1256 9.06584 36.4838C8.55035 36.3118 8.31619 35.7406 8.51224 35.2389C8.72342 34.6984 9.34909 34.45 9.91051 34.6161C11.3191 35.033 12.8044 35.0644 14.2275 34.7073C14.795 34.5649 15.4092 34.8372 15.5996 35.3847Z" fill="#5FB87A"/>
<path d="M41.258 5.95161V36.1935H37.1467V5.95161H25.743V2.41936H52.6617V5.95161H41.258Z" fill="#242A3B"/>
<path d="M58.6626 0.387098H62.5781V15.2903H62.7739C63.0349 14.6774 63.3612 14.0968 63.7527 13.5484C64.1443 12.9677 64.6174 12.4677 65.1721 12.0484C65.7594 11.629 66.4446 11.2903 67.2277 11.0323C68.0108 10.7742 68.9244 10.6452 69.9685 10.6452C72.6114 10.6452 74.7323 11.4839 76.3311 13.1613C77.9299 14.8065 78.7293 17.1452 78.7293 20.1774V36.1935H74.8139V20.8548C74.8139 18.5645 74.3081 16.871 73.2966 15.7742C72.2852 14.6452 70.8005 14.0806 68.8428 14.0806C68.0597 14.0806 67.293 14.1774 66.5425 14.371C65.792 14.5645 65.1231 14.8548 64.5358 15.2419C63.9485 15.629 63.4754 16.129 63.1165 16.7419C62.7576 17.3548 62.5781 18.0645 62.5781 18.871V36.1935H58.6626V0.387098Z" fill="#242A3B"/>
<path d="M99.4621 5.70968C98.3201 5.70968 97.5207 5.48387 97.0639 5.03226C96.6071 4.54839 96.3787 3.95161 96.3787 3.24193V2.46774C96.3787 1.75806 96.6071 1.17742 97.0639 0.725806C97.5207 0.241935 98.3201 0 99.4621 0C100.604 0 101.404 0.241935 101.86 0.725806C102.317 1.17742 102.546 1.75806 102.546 2.46774V3.24193C102.546 3.95161 102.317 4.54839 101.86 5.03226C101.404 5.48387 100.604 5.70968 99.4621 5.70968ZM88.401 32.9032H97.5044V14.5161H88.401V11.2258H101.42V32.9032H109.936V36.1935H88.401V32.9032Z" fill="#242A3B"/>
<path d="M117.356 36.1935V11.2258H121.272V15.2903H121.467C121.728 14.6774 122.055 14.0968 122.446 13.5484C122.838 12.9677 123.311 12.4677 123.866 12.0484C124.453 11.629 125.138 11.2903 125.921 11.0323C126.704 10.7742 127.618 10.6452 128.662 10.6452C131.305 10.6452 133.426 11.4839 135.025 13.1613C136.624 14.8065 137.423 17.1452 137.423 20.1774V36.1935H133.508V20.8548C133.508 18.5645 133.002 16.871 131.99 15.7742C130.979 14.6452 129.494 14.0806 127.536 14.0806C126.753 14.0806 125.987 14.1774 125.236 14.371C124.486 14.5645 123.817 14.8548 123.229 15.2419C122.642 15.629 122.169 16.129 121.81 16.7419C121.451 17.3548 121.272 18.0645 121.272 18.871V36.1935H117.356Z" fill="#242A3B"/>
<path d="M147.046 0.387098H150.961V22.9839H151.157L155.562 18.871L163.98 11.2258H168.776L158.303 21L170 36.1935H165.155L155.317 23.2258L150.961 27.1452V36.1935H147.046V0.387098Z" fill="#242A3B"/>
<path d="M8.97292 14.4194C8.97292 15.3101 8.2425 16.0323 7.34148 16.0323C6.44046 16.0323 5.71004 15.3101 5.71004 14.4194C5.71004 13.5286 6.44046 12.8065 7.34148 12.8065C8.2425 12.8065 8.97292 13.5286 8.97292 14.4194Z" fill="#E05548"/>
<path d="M13.8672 14.4194C13.8672 15.3101 13.1368 16.0323 12.2358 16.0323C11.3348 16.0323 10.6044 15.3101 10.6044 14.4194C10.6044 13.5286 11.3348 12.8065 12.2358 12.8065C13.1368 12.8065 13.8672 13.5286 13.8672 14.4194Z" fill="#E89E2E"/>
<path d="M18.7616 14.4194C18.7616 15.3101 18.0311 16.0323 17.1301 16.0323C16.2291 16.0323 15.4987 15.3101 15.4987 14.4194C15.4987 13.5286 16.2291 12.8065 17.1301 12.8065C18.0311 12.8065 18.7616 13.5286 18.7616 14.4194Z" fill="#5FB87A"/>
<path d="M22.2004 19.779C22.6331 20.0117 22.7958 20.5493 22.5294 20.959C21.2272 22.9626 19.3513 24.5476 17.1314 25.5057C14.6383 26.5817 11.8536 26.8057 9.21733 26.1423C6.58107 25.4788 4.24361 23.9657 2.57436 21.8421C0.905114 19.7185 -0.000724389 17.1056 4.34654e-07 14.4161C0.000725258 11.7267 0.907972 9.1142 2.57836 6.99149C4.24875 4.86878 6.58703 3.35693 9.22365 2.69486C11.8603 2.03278 14.6449 2.25825 17.1374 3.33563C19.3567 4.29491 21.2318 5.88086 22.533 7.88511C22.7991 8.29497 22.6361 8.83246 22.2033 9.06498C21.7704 9.29749 21.232 9.13657 20.9608 8.73002C19.8526 7.06887 18.2786 5.75373 16.4228 4.95157C14.2937 4.03127 11.915 3.83868 9.66281 4.40422C7.41059 4.96977 5.41322 6.2612 3.98636 8.07443C2.55951 9.88766 1.78453 12.1193 1.78391 14.4166C1.78329 16.7139 2.55706 18.946 3.98294 20.7599C5.40882 22.5739 7.40549 23.8664 9.65741 24.4331C11.9093 24.9999 14.2881 24.8085 16.4177 23.8893C18.2739 23.0882 19.8486 21.7739 20.9577 20.1133C21.2292 19.7069 21.7677 19.5462 22.2004 19.779Z" fill="#242A3B"/>
</svg>
