<svg width="203" height="59" viewBox="0 0 203 59" fill="none" xmlns="http://www.w3.org/2000/svg">
<path d="M21.7101 32.9688C22.0776 33.4774 21.9909 34.1876 21.4738 34.5449C19.4364 35.9527 17.0572 36.7089 14.6176 36.7102C12.178 36.7116 9.79816 35.9581 7.7594 34.5526C7.24186 34.1959 7.15442 33.4857 7.52139 32.9766C7.92753 32.4133 8.7262 32.3177 9.31306 32.6915C10.9109 33.7092 12.7421 34.2523 14.6164 34.2513C16.4907 34.2503 18.3214 33.7051 19.9183 32.6855C20.5047 32.3111 21.3035 32.4059 21.7101 32.9688Z" fill="#E05548"/>
<path d="M20.2869 37.8436C20.583 38.4081 20.3895 39.1106 19.8138 39.3886C18.1368 40.1984 16.3109 40.609 14.4627 40.5858C12.6127 40.5626 10.7946 40.1054 9.13452 39.2523C8.56751 38.9608 8.39119 38.2562 8.69904 37.7001C9.03655 37.0903 9.81988 36.8983 10.4527 37.1952C11.7225 37.7908 13.095 38.1095 14.4896 38.127C15.8837 38.1445 17.2622 37.8606 18.5442 37.2974C19.1845 37.0161 19.9632 37.2262 20.2869 37.8436Z" fill="#E89E2E"/>
<path d="M18.6277 42.522C18.84 43.1365 18.5314 43.8154 17.9042 43.9964C15.5795 44.6673 13.1233 44.6141 10.8257 43.8429C10.2101 43.6362 9.93051 42.9498 10.1646 42.3469C10.4168 41.6974 11.1639 41.3988 11.8343 41.5985C13.5163 42.0995 15.29 42.1372 16.9893 41.7081C17.667 41.5369 18.4005 41.8642 18.6277 42.522Z" fill="#5FB87A"/>
<path d="M49.2669 7.1521V43.4941H44.3576V7.1521H30.7401V2.90736H62.8843V7.1521H49.2669Z" fill="#FFFFF0"/>
<path d="M70.0501 0.465178H74.7256V18.3745H74.9594C75.2711 17.638 75.6607 16.9402 76.1283 16.2812C76.5958 15.5834 77.1608 14.9826 77.8231 14.4786C78.5245 13.9747 79.3427 13.5677 80.2778 13.2576C81.2129 12.9474 82.3038 12.7924 83.5506 12.7924C86.7066 12.7924 89.2392 13.8003 91.1483 15.816C93.0575 17.793 94.0121 20.6035 94.0121 24.2474V43.4941H89.3366V25.0614C89.3366 22.3091 88.7327 20.274 87.5248 18.956C86.317 17.5992 84.5442 16.9208 82.2064 16.9208C81.2713 16.9208 80.3557 17.0371 79.4596 17.2697C78.5634 17.5023 77.7647 17.8512 77.0634 18.3164C76.362 18.7815 75.7971 19.3824 75.3685 20.1189C74.9399 20.8555 74.7256 21.7083 74.7256 22.6774V43.4941H70.0501V0.465178Z" fill="#FFFFF0"/>
<path d="M118.769 6.86136C117.406 6.86136 116.451 6.59001 115.906 6.0473C115.36 5.46583 115.088 4.74868 115.088 3.89586V2.96551C115.088 2.11268 115.36 1.41491 115.906 0.872207C116.451 0.290736 117.406 0 118.769 0C120.133 0 121.088 0.290736 121.633 0.872207C122.179 1.41491 122.451 2.11268 122.451 2.96551V3.89586C122.451 4.74868 122.179 5.46583 121.633 6.0473C121.088 6.59001 120.133 6.86136 118.769 6.86136ZM105.561 39.5401H116.432V17.4442H105.561V13.4901H121.107V39.5401H131.276V43.4941H105.561V39.5401Z" fill="#FFFFF0"/>
<path d="M140.137 43.4941V13.4901H144.813V18.3745H145.046C145.358 17.638 145.748 16.9402 146.215 16.2812C146.683 15.5834 147.248 14.9826 147.91 14.4786C148.612 13.9747 149.43 13.5677 150.365 13.2576C151.3 12.9474 152.391 12.7924 153.638 12.7924C156.794 12.7924 159.326 13.8003 161.235 15.816C163.145 17.793 164.099 20.6035 164.099 24.2474V43.4941H159.424V25.0614C159.424 22.3091 158.82 20.274 157.612 18.956C156.404 17.5992 154.631 16.9208 152.293 16.9208C151.358 16.9208 150.443 17.0371 149.547 17.2697C148.65 17.5023 147.852 17.8512 147.15 18.3164C146.449 18.7815 145.884 19.3824 145.456 20.1189C145.027 20.8555 144.813 21.7083 144.813 22.6774V43.4941H140.137Z" fill="#FFFFF0"/>
<path d="M175.59 0.465178H180.265V27.6199H180.499L185.759 22.6774L195.811 13.4901H201.539L189.032 25.2359L203 43.4941H197.214L185.467 27.9106L180.265 32.6206V43.4941H175.59V0.465178Z" fill="#FFFFF0"/>
<path d="M1.94813 51.247H202.606L200.987 53.1853H3.56634L1.94813 51.247Z" fill="#E05548"/>
<path d="M1.94813 54.1544H202.606L200.987 56.0926H3.56634L1.94813 54.1544Z" fill="#E89E2E"/>
<path d="M1.94813 57.0618H202.606L200.987 59H3.56634L1.94813 57.0618Z" fill="#5FB87A"/>
<path d="M10.7147 17.3279C10.7147 18.3983 9.84251 19.2661 8.76659 19.2661C7.69067 19.2661 6.81846 18.3983 6.81846 17.3279C6.81846 16.2574 7.69067 15.3896 8.76659 15.3896C9.84251 15.3896 10.7147 16.2574 10.7147 17.3279Z" fill="#E05548"/>
<path d="M16.5591 17.3279C16.5591 18.3983 15.6869 19.2661 14.611 19.2661C13.5351 19.2661 12.6629 18.3983 12.6629 17.3279C12.6629 16.2574 13.5351 15.3896 14.611 15.3896C15.6869 15.3896 16.5591 16.2574 16.5591 17.3279Z" fill="#E89E2E"/>
<path d="M22.4035 17.3279C22.4035 18.3983 21.5313 19.2661 20.4554 19.2661C19.3795 19.2661 18.5072 18.3983 18.5072 17.3279C18.5072 16.2574 19.3795 15.3896 20.4554 15.3896C21.5313 15.3896 22.4035 16.2574 22.4035 17.3279Z" fill="#5FB87A"/>
<path d="M26.5099 23.7686C27.0266 24.0483 27.2208 24.6943 26.9028 25.1866C25.3477 27.5943 23.1077 29.499 20.457 30.6504C17.4799 31.9435 14.1546 32.2127 11.0066 31.4154C7.85857 30.6181 5.06737 28.7998 3.07409 26.2479C1.08081 23.6959 -0.000865005 20.5559 5.19028e-07 17.324C0.000866044 14.0921 1.08423 10.9526 3.07887 8.40173C5.07351 5.85085 7.86569 4.03405 11.0141 3.23843C14.1626 2.44281 17.4877 2.71376 20.4641 4.00845C23.1142 5.16123 25.3532 7.06707 26.907 9.4756C27.2248 9.96813 27.0302 10.614 26.5133 10.8935C25.9965 11.1729 25.3535 10.9795 25.0296 10.4909C23.7063 8.49472 21.8268 6.9143 19.6107 5.95035C17.0683 4.84441 14.2279 4.61297 11.5385 5.29259C8.84911 5.97221 6.46402 7.52414 4.76019 9.70311C3.05635 11.8821 2.13094 14.5638 2.1302 17.3245C2.12946 20.0853 3.05344 22.7675 4.7561 24.9474C6.45877 27.1273 8.84303 28.6805 11.5321 29.3615C14.2211 30.0425 17.0616 29.8126 19.6046 28.708C21.8212 27.7452 23.7016 26.1658 25.026 24.1703C25.3501 23.6819 25.9932 23.4889 26.5099 23.7686Z" fill="#FFFFF0"/>
</svg>
