<svg width="83" height="28" viewBox="0 0 83 28" fill="none" xmlns="http://www.w3.org/2000/svg">
<path d="M28.5518 25.9996C27.4111 25.9996 26.5701 25.6806 26.0288 25.0426C25.5068 24.4046 25.2458 23.583 25.2458 22.5776V13.0076H20.2578V11.0356H23.9698C24.4725 11.0356 24.8205 10.939 25.0138 10.7456C25.2265 10.533 25.3328 10.1753 25.3328 9.67262V5.75762H27.5658V11.0356H34.3808V13.0076H27.5658V24.0276H34.3808V25.9996H28.5518Z" fill="#FFFFF0"/>
<path d="M33.5575 4.53962H35.8775V13.4716H35.9935C36.1482 13.1043 36.3415 12.7563 36.5735 12.4276C36.8055 12.0796 37.0858 11.78 37.4145 11.5286C37.7625 11.2773 38.1685 11.0743 38.6325 10.9196C39.0965 10.765 39.6378 10.6876 40.2565 10.6876C41.8225 10.6876 43.0792 11.1903 44.0265 12.1956C44.9738 13.1816 45.4475 14.5833 45.4475 16.4006V25.9996H43.1275V16.8066C43.1275 15.434 42.8278 14.419 42.2285 13.7616C41.6292 13.085 40.7495 12.7466 39.5895 12.7466C39.1255 12.7466 38.6712 12.8046 38.2265 12.9206C37.7818 13.0366 37.3855 13.2106 37.0375 13.4426C36.6895 13.6746 36.4092 13.9743 36.1965 14.3416C35.9838 14.709 35.8775 15.1343 35.8775 15.6176V25.9996H33.5575V4.53962Z" fill="#FFFFF0"/>
<path d="M51.9322 7.72962C51.2555 7.72962 50.7818 7.59428 50.5112 7.32362C50.2405 7.03362 50.1052 6.67595 50.1052 6.25062V5.78662C50.1052 5.36128 50.2405 5.01328 50.5112 4.74262C50.7818 4.45262 51.2555 4.30762 51.9322 4.30762C52.6088 4.30762 53.0825 4.45262 53.3532 4.74262C53.6238 5.01328 53.7592 5.36128 53.7592 5.78662V6.25062C53.7592 6.67595 53.6238 7.03362 53.3532 7.32362C53.0825 7.59428 52.6088 7.72962 51.9322 7.72962ZM45.3782 24.0276H50.7722V13.0076H45.3782V11.0356H53.0922V24.0276H58.1382V25.9996H45.3782V24.0276Z" fill="#FFFFF0"/>
<path d="M56.7348 25.9996V11.0356H59.0548V13.4716H59.1708C59.3255 13.1043 59.5188 12.7563 59.7508 12.4276C59.9828 12.0796 60.2632 11.78 60.5918 11.5286C60.9398 11.2773 61.3458 11.0743 61.8098 10.9196C62.2738 10.765 62.8152 10.6876 63.4338 10.6876C64.9998 10.6876 66.2565 11.1903 67.2038 12.1956C68.1512 13.1816 68.6248 14.5833 68.6248 16.4006V25.9996H66.3048V16.8066C66.3048 15.434 66.0052 14.419 65.4058 13.7616C64.8065 13.085 63.9268 12.7466 62.7668 12.7466C62.3028 12.7466 61.8485 12.8046 61.4038 12.9206C60.9592 13.0366 60.5628 13.2106 60.2148 13.4426C59.8668 13.6746 59.5865 13.9743 59.3738 14.3416C59.1612 14.709 59.0548 15.1343 59.0548 15.6176V25.9996H56.7348Z" fill="#FFFFF0"/>
<path d="M68.5265 4.53962H70.8465V18.0826H70.9625L73.5725 15.6176L78.5605 11.0356H81.4025L75.1965 16.8936L82.1275 25.9996H79.2565L73.4275 18.2276L70.8465 20.5766V25.9996H68.5265V4.53962Z" fill="#FFFFF0"/>
<path d="M9.61508 12.9767C9.61508 13.7755 8.96934 14.4231 8.17278 14.4231C7.37621 14.4231 6.73047 13.7755 6.73047 12.9767C6.73047 12.1779 7.37621 11.5303 8.17278 11.5303C8.96934 11.5303 9.61508 12.1779 9.61508 12.9767Z" fill="#E05548"/>
<path d="M13.942 12.9767C13.942 13.7755 13.2963 14.4231 12.4997 14.4231C11.7031 14.4231 11.0574 13.7755 11.0574 12.9767C11.0574 12.1779 11.7031 11.5303 12.4997 11.5303C13.2963 11.5303 13.942 12.1779 13.942 12.9767Z" fill="#E89E2E"/>
<path d="M18.2689 12.9767C18.2689 13.7755 17.6232 14.4231 16.8266 14.4231C16.0301 14.4231 15.3843 13.7755 15.3843 12.9767C15.3843 12.1779 16.0301 11.5303 16.8266 11.5303C17.6232 11.5303 18.2689 12.1779 18.2689 12.9767Z" fill="#5FB87A"/>
<path d="M12.0876 13.6999C12.0307 13.6999 11.9846 13.6537 11.9846 13.5966V12.3568C11.9846 12.2997 12.0307 12.2535 12.0876 12.2535C12.1445 12.2535 12.1906 12.2997 12.1906 12.3568V13.5966C12.1906 13.6537 12.1445 13.6999 12.0876 13.6999Z" fill="#FFFFF0"/>
<path d="M12.4997 13.39C12.4428 13.39 12.3967 13.3437 12.3967 13.2867V12.6668C12.3967 12.6097 12.4428 12.5634 12.4997 12.5634C12.5566 12.5634 12.6027 12.6097 12.6027 12.6668V13.2867C12.6027 13.3437 12.5566 13.39 12.4997 13.39Z" fill="#FFFFF0"/>
<path d="M12.9118 13.6999C12.8549 13.6999 12.8088 13.6537 12.8088 13.5966V12.3568C12.8088 12.2997 12.8549 12.2535 12.9118 12.2535C12.9687 12.2535 13.0148 12.2997 13.0148 12.3568V13.5966C13.0148 13.6537 12.9687 13.6999 12.9118 13.6999Z" fill="#FFFFF0"/>
<path d="M17.7538 12.9767C17.7538 13.0852 17.7325 13.1927 17.6911 13.293C17.6497 13.3933 17.589 13.4844 17.5124 13.5611C17.4359 13.6379 17.345 13.6988 17.245 13.7403C17.145 13.7819 17.0379 13.8032 16.9296 13.8032V12.9767H17.7538Z" fill="#6F9B7C"/>
<path d="M16.1055 12.9767C16.2137 12.9767 16.3209 12.9981 16.4209 13.0396C16.5209 13.0812 16.6117 13.142 16.6882 13.2188C16.7648 13.2955 16.8255 13.3867 16.8669 13.4869C16.9083 13.5872 16.9296 13.6947 16.9296 13.8032H16.1055V12.9767Z" fill="#066222"/>
<path d="M16.9296 12.1502C17.0379 12.1502 17.145 12.1716 17.245 12.2131C17.345 12.2546 17.4359 12.3155 17.5124 12.3923C17.589 12.469 17.6497 12.5601 17.6911 12.6604C17.7325 12.7607 17.7538 12.8682 17.7538 12.9767H16.9296V12.1502Z" fill="#38764B"/>
<path d="M16.1055 12.1502H16.9296V12.9767H16.1055V12.1502Z" fill="#FFFFF0"/>
<path d="M8.18163 13.6999C8.79976 13.6999 9.09997 12.9398 9.09997 12.9398C9.09997 12.9398 8.78205 12.2535 8.17278 12.2535C7.5469 12.2535 7.24558 12.9398 7.24558 12.9398C7.24558 12.9398 7.5635 13.6999 8.18163 13.6999Z" fill="#FFFFF0"/>
<path d="M8.18852 13.4932C8.66929 13.4932 8.90278 12.9638 8.90278 12.9638C8.90278 12.9638 8.65551 12.4601 8.18163 12.4601C7.69484 12.4601 7.46048 12.9638 7.46048 12.9638C7.46048 12.9638 7.70775 13.4932 8.18852 13.4932Z" fill="#E05548"/>
<path d="M8.4907 12.9767C8.4907 13.1479 8.35232 13.2867 8.18163 13.2867C8.01094 13.2867 7.87256 13.1479 7.87256 12.9767C7.87256 12.8055 8.01094 12.6668 8.18163 12.6668C8.35232 12.6668 8.4907 12.8055 8.4907 12.9767Z" fill="#FFFFF0"/>
<path d="M8.38767 12.9767C8.38767 13.0908 8.29542 13.1833 8.18163 13.1833C8.06783 13.1833 7.97559 13.0908 7.97559 12.9767C7.97559 12.8626 8.06783 12.7701 8.18163 12.7701C8.29542 12.7701 8.38767 12.8626 8.38767 12.9767Z" fill="#E05548"/>
<path d="M14.6629 25.2715C14.6629 25.5247 14.6069 25.7755 14.4982 26.0095C14.3895 26.2435 14.2301 26.4561 14.0292 26.6352C13.8283 26.8143 13.5898 26.9563 13.3273 27.0533C13.0648 27.1502 12.7835 27.2001 12.4994 27.2001C12.2153 27.2001 11.934 27.1502 11.6715 27.0533C11.409 26.9563 11.1705 26.8143 10.9696 26.6352C10.7687 26.4561 10.6093 26.2435 10.5006 26.0095C10.3919 25.7755 10.3359 25.5247 10.3359 25.2715C11.1118 25.5214 12.4994 25.7858 12.4994 25.7858C12.4994 25.7858 13.867 25.5424 14.6629 25.2715Z" fill="#FFFFF0"/>
<path d="M25 12.977C25 10.5095 24.3067 8.14702 23.0033 6.07372C21.6998 4.00042 19.8415 2.35688 17.651 1.3401C15.4605 0.323326 13.0308 -0.0235606 10.653 0.341021C8.27533 0.705603 6.05049 1.76618 4.24519 3.39565C2.43988 5.02512 1.1307 7.15433 0.474561 9.52811C-0.18158 11.9019 -0.156846 14.4195 0.5458 16.7792C1.24845 19.1389 2.59919 21.2406 4.43614 22.8324C6.2731 24.4241 8.51832 25.4385 10.9027 25.7538C10.8069 23.7722 10.6156 22.885 10.0236 21.6228C9.43396 20.2915 8.70154 19.9803 7.58099 19.0094C6.46043 18.0384 5.63647 16.7563 5.20785 15.3169C4.77923 13.8774 4.76414 12.3417 5.16439 10.8937C5.56464 9.44563 6.36325 8.1468 7.4645 7.15281C8.56575 6.15882 9.92292 5.51186 11.3733 5.28946C12.8238 5.06706 14.3059 5.27867 15.6421 5.89891C16.9783 6.51915 18.1119 7.52172 18.9071 8.78645C19.7022 10.0512 20.1923 11.4718 20.1923 12.977H22.5962H25Z" fill="#FFFFF0"/>
<path d="M14.1836 25.754C16.5874 25.473 18.8676 24.5789 20.7851 23.1656C22.7025 21.7523 24.1063 19.949 25.0009 17.7988C25.0009 17.7988 21.242 17.7159 20.0537 17.9457C18.8654 18.1754 18.2879 18.5342 17.2539 19.2832C16.22 20.0323 15.1224 21.9004 14.9631 22.3231C14.8038 22.7459 14.1836 25.754 14.1836 25.754Z" fill="#FFFFF0"/>
</svg>
