<svg width="200" height="58" viewBox="0 0 200 58" fill="none" xmlns="http://www.w3.org/2000/svg">
<path d="M21.3893 32.41C21.7513 32.91 21.6659 33.6081 21.1565 33.9594C19.1491 35.3433 16.8051 36.0867 14.4015 36.088C11.9981 36.0894 9.65336 35.3487 7.64473 33.967C7.13484 33.6163 7.04869 32.9181 7.41024 32.4177C7.81037 31.8639 8.59724 31.7699 9.17543 32.1374C10.7496 33.1379 12.5538 33.6718 14.4004 33.6708C16.247 33.6697 18.0507 33.1338 19.6239 32.1315C20.2017 31.7634 20.9886 31.8566 21.3893 32.41Z" fill="#E05548"/>
<path d="M19.9871 37.2022C20.2788 37.7571 20.0882 38.4477 19.5209 38.721C17.8688 39.5171 16.0699 39.9207 14.249 39.8979C12.4263 39.8751 10.6351 39.4257 8.99953 38.587C8.4409 38.3005 8.26718 37.6078 8.57049 37.0611C8.90301 36.4616 9.67476 36.2729 10.2983 36.5648C11.5493 37.1503 12.9015 37.4636 14.2755 37.4808C15.6489 37.498 17.0071 37.2189 18.2702 36.6652C18.901 36.3887 19.6682 36.5952 19.9871 37.2022Z" fill="#E89E2E"/>
<path d="M18.3524 41.8013C18.5616 42.4054 18.2575 43.0727 17.6396 43.2507C15.3492 43.9102 12.9293 43.8579 10.6657 43.0998C10.0592 42.8966 9.78376 42.2218 10.0144 41.6291C10.2628 40.9907 10.9989 40.6971 11.6594 40.8934C13.3166 41.3859 15.0641 41.423 16.7382 41.0012C17.4059 40.8329 18.1285 41.1546 18.3524 41.8013Z" fill="#5FB87A"/>
<path d="M48.5388 7.03088V42.7569H43.702V7.03088H30.2859V2.85808H61.955V7.03088H48.5388Z" fill="#242A3B"/>
<path d="M69.0149 0.457294H73.6213V18.0631H73.8516C74.1587 17.339 74.5426 16.6531 75.0032 16.0053C75.4639 15.3193 76.0205 14.7286 76.673 14.2332C77.364 13.7378 78.1701 13.3377 79.0914 13.0329C80.0127 12.728 81.0875 12.5756 82.3159 12.5756C85.4252 12.5756 87.9204 13.5664 89.8013 15.548C91.6823 17.4915 92.6228 20.2543 92.6228 23.8364V42.7569H88.0163V24.6367C88.0163 21.931 87.4213 19.9304 86.2314 18.6347C85.0414 17.3009 83.2948 16.634 80.9916 16.634C80.0703 16.634 79.1682 16.7484 78.2853 16.977C77.4024 17.2057 76.6155 17.5486 75.9245 18.0059C75.2335 18.4632 74.6769 19.0539 74.2547 19.7779C73.8324 20.502 73.6213 21.3403 73.6213 22.293V42.7569H69.0149V0.457294Z" fill="#242A3B"/>
<path d="M117.014 6.74507C115.671 6.74507 114.73 6.47832 114.193 5.94481C113.655 5.37319 113.387 4.6682 113.387 3.82983V2.91524C113.387 2.07687 113.655 1.39093 114.193 0.857424C114.73 0.285808 115.671 0 117.014 0C118.358 0 119.298 0.285808 119.836 0.857424C120.373 1.39093 120.642 2.07687 120.642 2.91524V3.82983C120.642 4.6682 120.373 5.37319 119.836 5.94481C119.298 6.47832 118.358 6.74507 117.014 6.74507ZM104.001 38.8699H114.711V17.1485H104.001V13.2615H119.317V38.8699H129.336V42.7569H104.001V38.8699Z" fill="#242A3B"/>
<path d="M138.066 42.7569V13.2615H142.673V18.0631H142.903C143.21 17.339 143.594 16.6531 144.055 16.0053C144.515 15.3193 145.072 14.7286 145.724 14.2332C146.415 13.7378 147.221 13.3377 148.143 13.0329C149.064 12.728 150.139 12.5756 151.367 12.5756C154.477 12.5756 156.972 13.5664 158.853 15.548C160.734 17.4915 161.674 20.2543 161.674 23.8364V42.7569H157.068V24.6367C157.068 21.931 156.473 19.9304 155.283 18.6347C154.093 17.3009 152.346 16.634 150.043 16.634C149.122 16.634 148.219 16.7484 147.337 16.977C146.454 17.2057 145.667 17.5486 144.976 18.0059C144.285 18.4632 143.728 19.0539 143.306 19.7779C142.884 20.502 142.673 21.3403 142.673 22.293V42.7569H138.066Z" fill="#242A3B"/>
<path d="M172.995 0.457294H177.601V27.1518H177.832L183.014 22.293L192.918 13.2615H198.56L186.238 24.8081L200 42.7569H194.3L182.726 27.4376L177.601 32.0677V42.7569H172.995V0.457294Z" fill="#242A3B"/>
<path d="M1.91934 50.3785H199.611L198.017 52.2838H3.51363L1.91934 50.3785Z" fill="#E05548"/>
<path d="M1.91934 53.2365H199.611L198.017 55.1419H3.51363L1.91934 53.2365Z" fill="#E89E2E"/>
<path d="M1.91934 56.0946H199.611L198.017 58H3.51363L1.91934 56.0946Z" fill="#5FB87A"/>
<path d="M10.5564 17.0342C10.5564 18.0865 9.69706 18.9396 8.63704 18.9396C7.57701 18.9396 6.71769 18.0865 6.71769 17.0342C6.71769 15.9818 7.57701 15.1288 8.63704 15.1288C9.69706 15.1288 10.5564 15.9818 10.5564 17.0342Z" fill="#E05548"/>
<path d="M16.3144 17.0342C16.3144 18.0865 15.4551 18.9396 14.3951 18.9396C13.335 18.9396 12.4757 18.0865 12.4757 17.0342C12.4757 15.9818 13.335 15.1288 14.3951 15.1288C15.4551 15.1288 16.3144 15.9818 16.3144 17.0342Z" fill="#E89E2E"/>
<path d="M22.0724 17.0342C22.0724 18.0865 21.2131 18.9396 20.1531 18.9396C19.0931 18.9396 18.2337 18.0865 18.2337 17.0342C18.2337 15.9818 19.0931 15.1288 20.1531 15.1288C21.2131 15.1288 22.0724 15.9818 22.0724 17.0342Z" fill="#5FB87A"/>
<path d="M26.1181 23.3657C26.6272 23.6407 26.8185 24.2757 26.5052 24.7597C24.9731 27.1266 22.7662 28.999 20.1546 30.1309C17.2216 31.4021 13.9454 31.6667 10.8439 30.8829C7.74243 30.0991 4.99248 28.3117 3.02866 25.803C1.06484 23.2943 -0.000852222 20.2075 5.11358e-07 17.0304C0.000853245 13.8532 1.0682 10.767 3.03337 8.25933C4.99853 5.75169 7.74944 3.96567 10.8514 3.18354C13.9533 2.40141 17.2293 2.66776 20.1617 3.94051C22.7726 5.07375 24.9786 6.94729 26.5094 9.315C26.8224 9.79918 26.6307 10.4341 26.1215 10.7088C25.6123 10.9835 24.9788 10.7934 24.6597 10.3131C23.356 8.35074 21.5042 6.79711 19.3209 5.84949C16.8161 4.76231 14.0177 4.53478 11.368 5.20288C8.71834 5.87099 6.3685 7.39661 4.68984 9.53865C3.01118 11.6807 2.09945 14.317 2.09872 17.0309C2.09799 19.7448 3.00831 22.3816 4.68582 24.5246C6.36332 26.6675 8.71235 28.1943 11.3617 28.8638C14.011 29.5333 16.8095 29.3073 19.3149 28.2214C21.4987 27.275 23.3513 25.7223 24.6561 23.7606C24.9755 23.2805 25.609 23.0908 26.1181 23.3657Z" fill="#242A3B"/>
</svg>
